<?xml version="1.0" encoding="iso-8859-1"?>
<!-- Generator: Adobe Illustrator 16.0.0, SVG Export Plug-In . SVG Version: 6.00 Build 0)  -->
<!DOCTYPE svg PUBLIC "-//W3C//DTD SVG 1.1//EN" "http://www.w3.org/Graphics/SVG/1.1/DTD/svg11.dtd">
<svg version="1.1" id="Capa_1" xmlns="http://www.w3.org/2000/svg" xmlns:xlink="http://www.w3.org/1999/xlink" x="0px" y="0px"
	 width="113.408px" height="113.408px" viewBox="0 0 113.408 113.408" style="enable-background:new 0 0 113.408 113.408;"
	 xml:space="preserve">
<g>
	<g>
		<path d="M56.596,28.238c-14.37,0-26.271,10.769-27.685,25.043c-0.093,0.913-0.142,1.839-0.142,2.782
			c0,15.34,12.482,27.825,27.827,27.825c15.346,0,27.825-12.484,27.825-27.825C84.421,40.718,71.942,28.238,56.596,28.238z
			 M56.596,80.183c-0.226,0-0.448-0.023-0.674-0.033V31.974c0.227-0.009,0.448-0.032,0.674-0.032
			c13.302,0,24.129,10.82,24.129,24.122S69.898,80.183,56.596,80.183z"/>
		<path d="M103.958,59.048c0.065-0.992,0.154-1.981,0.154-2.987c0-0.593-0.07-1.167-0.089-1.752l7.785-5.64
			c0.574-0.413,0.858-1.125,0.732-1.822c-0.121-0.696-0.625-1.263-1.312-1.459l-9.03-2.562c-0.477-1.645-1.027-3.257-1.676-4.819
			l5.213-7.698c0.401-0.586,0.42-1.351,0.065-1.965c-0.35-0.611-1.022-0.968-1.736-0.922l-9.151,0.658
			c-1.051-1.433-2.18-2.803-3.38-4.107l2.218-8.847c0.172-0.69-0.062-1.412-0.607-1.869c-0.536-0.455-1.297-0.56-1.946-0.271
			l-8.125,3.645c-1.55-1.045-3.188-1.97-4.858-2.828l-0.91-8.844c-0.079-0.703-0.546-1.305-1.214-1.545
			c-0.662-0.248-1.404-0.086-1.923,0.411l-6.31,6.125C66,9.498,64.115,9.134,62.187,8.907l-3.815-7.862
			C58.062,0.404,57.416,0,56.706,0s-1.356,0.404-1.671,1.045l-3.794,7.822c-1.958,0.222-3.867,0.59-5.74,1.043L39.235,3.83
			c-0.511-0.497-1.26-0.653-1.923-0.408c-0.665,0.24-1.134,0.842-1.207,1.552l-0.896,8.718c-1.725,0.875-3.409,1.815-5.005,2.887
			l-8-3.582c-0.646-0.289-1.4-0.185-1.946,0.269c-0.541,0.455-0.779,1.186-0.606,1.871l2.175,8.648
			c-1.26,1.36-2.441,2.789-3.538,4.287l-8.952-0.642c-0.763-0.051-1.386,0.31-1.738,0.921c-0.355,0.614-0.329,1.377,0.07,1.963
			l5.073,7.488c-0.686,1.649-1.262,3.358-1.764,5.094l-8.797,2.504c-0.682,0.191-1.193,0.759-1.314,1.457
			c-0.124,0.698,0.161,1.407,0.737,1.822l7.575,5.479c-0.023,0.635-0.093,1.26-0.093,1.904c0,1.062,0.089,2.096,0.159,3.139
			l-7.64,5.526c-0.576,0.42-0.861,1.129-0.737,1.824c0.119,0.695,0.63,1.27,1.314,1.456l9.21,2.618
			c0.49,1.526,1.064,3.016,1.696,4.467L7.669,83.09c-0.399,0.583-0.42,1.349-0.07,1.965c0.333,0.574,0.945,0.924,1.603,0.924
			c0.044,0,0.091,0,0.133,0l9.859-0.714c0.913,1.162,1.872,2.277,2.887,3.352l-2.429,9.651c-0.173,0.69,0.063,1.414,0.606,1.871
			c0.341,0.285,0.761,0.435,1.188,0.435c0.256,0,0.513-0.057,0.758-0.164l9.215-4.13c1.185,0.747,2.399,1.442,3.649,2.081
			l1.036,10.076c0.072,0.7,0.542,1.303,1.207,1.545c0.205,0.075,0.42,0.112,0.632,0.112c0.476,0,0.938-0.178,1.291-0.527
			l7.309-7.085c1.318,0.285,2.665,0.495,4.023,0.663l4.474,9.218c0.31,0.639,0.959,1.045,1.668,1.045
			c0.709,0,1.355-0.406,1.666-1.05l4.485-9.245c1.335-0.183,2.66-0.393,3.957-0.678l7.36,7.141c0.354,0.341,0.821,0.519,1.293,0.519
			c0.21,0,0.425-0.037,0.63-0.112c0.672-0.242,1.139-0.845,1.209-1.545l1.045-10.188c1.204-0.626,2.371-1.307,3.51-2.025
			l9.349,4.186c0.242,0.107,0.494,0.159,0.756,0.159c0.425,0,0.85-0.145,1.189-0.43c0.537-0.457,0.771-1.186,0.603-1.871
			l-2.483-9.839c0.957-1.026,1.867-2.081,2.73-3.188l10.062,0.724c0.052,0.01,0.098,0.01,0.136,0.01
			c0.657,0,1.273-0.351,1.609-0.929c0.355-0.611,0.322-1.382-0.079-1.961l-5.549-8.186c0.598-1.367,1.125-2.772,1.592-4.205
			l9.445-2.693c0.682-0.195,1.195-0.761,1.316-1.456c0.126-0.704-0.158-1.409-0.732-1.824L103.958,59.048z M90.162,56.701
			c0,18.502-15.056,33.559-33.567,33.559c-18.508,0-33.563-15.057-33.563-33.559c0-18.51,15.056-33.563,33.563-33.563
			C75.106,23.137,90.162,38.191,90.162,56.701z"/>
	</g>
</g>
<g>
</g>
<g>
</g>
<g>
</g>
<g>
</g>
<g>
</g>
<g>
</g>
<g>
</g>
<g>
</g>
<g>
</g>
<g>
</g>
<g>
</g>
<g>
</g>
<g>
</g>
<g>
</g>
<g>
</g>
</svg>
